HIERARCHY
ROOT Hips
{
  OFFSET -76.4038 93.2266 58.9087
  CHANNELS 6 Xposition Yposition Zposition Zrotation Xrotation Yrotation
  JOINT RightUpLeg
  {
    OFFSET -8.9458 -8.66707 0.101652
    CHANNELS 3 Zrotation Xrotation Yrotation
    JOINT RightLeg
    {
      OFFSET 0 -44.4227 1.3727
      CHANNELS 3 Zrotation Xrotation Yrotation
      JOINT RightFoot
      {
        OFFSET 0.253549 -42.0924 -1.46059
        CHANNELS 3 Zrotation Xrotation Yrotation
        JOINT RightToes
        {
          OFFSET 0.04 -4.41509 8.4991
          CHANNELS 3 Zrotation Xrotation Yrotation
          End Site
          {
            OFFSET -0.08 -0.137448 9.77979
          }
        }
      }
    }
  }
  JOINT Spine
  {
    OFFSET 0 11.8905 0
    CHANNELS 3 Zrotation Xrotation Yrotation
    JOINT Spine1
    {
      OFFSET 0 25.6574 0.127663
      CHANNELS 3 Zrotation Xrotation Yrotation
      JOINT HEad
      {
        OFFSET 0 8.73416 0.011341
        CHANNELS 3 Zrotation Xrotation Yrotation
        End Site
        {
          OFFSET -0.29 12.7742 2.51395
        }
      }
      JOINT LeftShoulder1
      {
        OFFSET 8.99 -0.362252 -0.22
        CHANNELS 3 Zrotation Xrotation Yrotation
        JOINT LeftArm
        {
          OFFSET 10.2827 -0.00338 0.322123
          CHANNELS 3 Zrotation Xrotation Yrotation
          JOINT LeftForeArm
          {
            OFFSET 32.7669 0.099144 -1.42434
            CHANNELS 3 Zrotation Xrotation Yrotation
            JOINT LeftHand
            {
              OFFSET 27.5643 0.085362 1.02216
              CHANNELS 3 Zrotation Xrotation Yrotation
              End Site
              {
                OFFSET 16.7443 -0.6 1.50291
              }
            }
          }
        }
      }
      JOINT RightShoulder
      {
        OFFSET -8.99 -0.362252 -0.22
        CHANNELS 3 Zrotation Xrotation Yrotation
        JOINT RightArm
        {
          OFFSET -10.2827 -0.00338 0.322123
          CHANNELS 3 Zrotation Xrotation Yrotation
          JOINT RightForeArm
          {
            OFFSET -32.8971 0.099144 -1.42434
            CHANNELS 3 Zrotation Xrotation Yrotation
            JOINT RightHand
            {
              OFFSET -27.4921 0.085362 1.02216
              CHANNELS 3 Zrotation Xrotation Yrotation
              End Site
              {
                OFFSET -16.6312 -0.6 1.50291
              }
            }
          }
        }
      }
    }
  }
  JOINT LeftUpLeg
  {
    OFFSET 8.9458 -8.66707 0.101652
    CHANNELS 3 Zrotation Xrotation Yrotation
    JOINT LeftLeg
    {
      OFFSET 0 -44.4227 1.3727
      CHANNELS 3 Zrotation Xrotation Yrotation
      JOINT LeftFoot
      {
        OFFSET -0.253549 -42.0924 -1.46059
        CHANNELS 3 Zrotation Xrotation Yrotation
        JOINT LeftToes
        {
          OFFSET -0.04 -4.41509 8.4991
          CHANNELS 3 Zrotation Xrotation Yrotation
          End Site
          {
            OFFSET 0.08 -0.047448 9.77979
          }
        }
      }
    }
  }
}
MOTION
Frames:	16
Frame Time:	0.0166667
-79.0554 90.5309 51.8719 -4.09384 -0.487992 -113.107 -26.0266 -27.5964 6.6295 17.6415 46.6959 -15.0377 15.889 17.3438 -3.47876 -17.9661 -43.7012 -9.04825 1.53114 7.27332 -4.08468 -3.32759 14.1092 -7.11025 12.527 -3.79655 -10.7793 7.95139e-016 -3.97569e-015 -9.54166e-015 -72.4361 2.07571 -44.8441 -14.9607 41.1549 -111.75 6.54677 9.62745 -1.04006 27.7458 -5.05701 -19.3626 58.0093 -13.5506 23.9827 -15.0829 29.5494 132.692 -24.6075 8.8068 0.916401 21.0034 1.23046 -12.8906 -10.9031 27.482 4.11005 -8.22483 25.2523 2.19244 66.8763 -59.965 49.3948 
-79.034 91.0727 51.3211 -3.63701 -0.150424 -112.145 -26.4925 -27.4399 6.48889 18.4984 46.2963 -12.7511 18.0501 17.9558 -4.05021 -16.6793 -42.4047 -7.72549 1.63037 7.14787 -4.14519 -3.01708 13.8829 -7.29331 12.6443 -3.46265 -11.5184 -1.76556e-031 -3.18055e-015 -3.18055e-015 -72.5872 2.78297 -43.9726 -14.8683 41.0964 -111.934 6.54677 9.62745 -1.04006 27.9165 -5.21318 -19.7851 57.8294 -13.21 23.1072 -15.1314 29.0159 133.477 -24.867 8.78153 0.977848 21.9149 0.465393 -13.1332 -11.3462 27.4434 4.6214 -7.25863 24.8765 1.89269 62.6215 -58.6105 46.1937 
-78.9885 91.8053 50.609 -3.03034 0.345684 -110.965 -26.8747 -27.2105 6.17465 19.3431 45.7509 -10.3315 19.7946 18.227 -4.4933 -14.6883 -39.9354 -5.81596 1.91258 6.97078 -4.21798 -2.48324 13.5508 -7.51998 12.7187 -2.98342 -12.2614 -8.82781e-031 -3.97569e-015 -1.27222e-014 -72.6925 3.68452 -42.5944 -14.7739 41.026 -112.122 6.54677 9.62745 -1.04006 28.0367 -5.37956 -20.2654 57.6456 -13.1255 22.4787 -15.2542 28.3566 134.602 -24.6789 8.86942 0.602142 23.2032 -1.00967 -13.2792 -12.1045 27.9856 5.37263 -6.82682 25.4257 1.79985 58.6275 -57.4472 42.9363 
-78.9148 92.6364 49.791 -2.37234 0.948203 -109.672 -27.1487 -26.8815 5.73952 20.0244 45.0688 -8.27635 20.6928 18.0835 -4.67583 -12.5171 -36.6211 -3.88992 2.32307 6.77239 -4.28061 -1.82972 13.1765 -7.73975 12.7859 -2.4746 -12.9792 -7.95139e-016 -1.59028e-015 6.36111e-015 -72.7037 4.67406 -40.97 -14.6677 40.9349 -112.32 6.54677 9.62745 -1.04006 28.0895 -5.52042 -20.6977 57.5409 -13.4607 22.2005 -15.4274 27.6599 135.934 -24.0324 9.06467 -0.214408 24.7041 -3.1343 -13.1642 -13.1884 29.1792 6.38687 -6.99217 26.9927 1.93535 55.0907 -56.7467 39.5719 
-78.8226 93.4549 48.9309 -1.7731 1.57329 -108.412 -27.3325 -26.4451 5.32067 20.3909 44.2329 -7.00025 20.5673 17.5765 -4.55862 -10.5867 -32.9804 -2.37335 2.79187 6.5894 -4.30562 -1.17198 12.8347 -7.88726 12.8445 -2.05154 -13.6482 -7.95139e-016 7.95139e-016 -6.36111e-015 -72.607 5.63534 -39.3805 -14.5387 40.8206 -112.543 6.54677 9.62745 -1.04006 28.0429 -5.59423 -20.9681 57.622 -14.3905 22.3805 -15.6426 27.0328 137.31 -22.9508 9.3438 -1.44759 26.1854 -5.70888 -12.6397 -14.5258 30.9975 7.61648 -7.77519 29.3834 2.32399 52.0254 -56.6861 35.9652 
-78.7312 94.1539 48.0879 -1.32641 2.12886 -107.359 -27.4583 -25.9191 5.09752 20.3175 43.215 -6.69982 19.5485 16.7721 -4.19637 -8.99906 -29.23 -1.40294 3.24888 6.45542 -4.26658 -0.607645 12.5917 -7.89664 12.8551 -1.7821 -14.2442 7.95139e-016 -4.37326e-015 -0 -72.4382 6.44603 -38.0733 -14.3853 40.6968 -112.805 6.54677 9.62745 -1.04006 27.8571 -5.56412 -20.9811 58.0033 -16.0529 23.1384 -15.9238 26.5799 138.548 -21.4953 9.66801 -3.03473 27.4153 -8.41839 -11.6459 -15.992 33.2956 8.95837 -9.13511 32.1502 2.97638 49.5201 -57.2736 32.2744 
-78.659 94.6512 47.3018 -1.08985 2.54332 -106.678 -27.5437 -25.3403 5.21376 19.719 41.9963 -7.28249 18.0083 15.7241 -3.70323 -7.63771 -25.1845 -0.951882 3.63274 6.39206 -4.14609 -0.19673 12.4872 -7.72077 12.7627 -1.6573 -14.7392 -1.59028e-015 2.38542e-015 -0 -72.2839 6.98546 -37.2205 -14.2238 40.5977 -113.104 6.54677 9.62745 -1.04006 27.4985 -5.41038 -20.6865 58.7906 -18.47 24.6106 -16.3403 26.3575 139.47 -19.7751 9.99081 -4.86898 28.232 -10.9054 -10.2524 -17.4734 35.8138 10.3032 -10.9232 34.7424 3.84471 47.8614 -58.3509 29.1018 
-78.6129 94.8956 46.5843 -1.08034 2.78859 -106.485 -27.5779 -24.7486 5.70142 18.5632 40.5838 -8.37108 16.4135 14.5543 -3.21273 -6.36996 -20.6514 -0.960646 3.89616 6.40386 -3.94473 0.0450151 12.5254 -7.35189 12.5286 -1.59403 -15.1028 -7.95139e-016 5.96354e-015 -3.18055e-015 -72.2654 7.14712 -36.9016 -14.0889 40.5747 -113.418 6.54677 9.62745 -1.04006 26.9545 -5.13819 -20.0919 60.0593 -21.4611 26.9387 -17.0142 26.3146 139.937 -17.9576 10.271 -6.80659 28.5848 -12.8609 -8.6396 -18.9033 38.2272 11.586 -12.8643 36.7099 4.79327 47.4336 -59.6934 27.2267 
-78.5855 94.8624 45.9182 -1.28174 2.88632 -106.808 -27.5296 -24.1667 6.44898 16.8975 39.0157 -9.41067 15.1367 13.5283 -2.83354 -5.20952 -15.9518 -1.37571 4.00821 6.47793 -3.68621 0.139541 12.6774 -6.83478 12.1565 -1.47001 -15.3053 -4.41391e-032 7.95139e-016 3.18055e-015 -72.5033 6.85716 -37.1168 -14.0255 40.6827 -113.709 6.54677 9.62745 -1.04006 26.2453 -4.77612 -19.256 61.8151 -24.611 30.2224 -18.1074 26.2664 139.891 -16.2742 10.4875 -8.68989 28.5291 -14.101 -7.03566 -20.2331 40.2482 12.8 -14.6122 37.8483 5.62957 48.5404 -61.1043 27.2248 
-78.5617 94.5489 45.2663 -1.65404 2.89505 -107.564 -27.3703 -23.591 7.23503 14.8767 37.366 -9.87575 14.3132 12.993 -2.61655 -4.36079 -12.0612 -2.11192 3.95876 6.58806 -3.41582 0.131625 12.8927 -6.26508 11.6961 -1.17531 -15.3246 2.38542e-015 -3.18055e-015 -3.18055e-015 -73.0745 6.09267 -37.8216 -14.0738 40.9603 -113.927 6.54677 9.62745 -1.04006 25.4229 -4.36445 -18.261 63.9399 -27.3704 34.4327 -19.7691 25.9604 139.378 -15.0148 10.647 -10.371 28.1872 -14.6095 -5.65476 -21.3826 41.7422 13.9625 -15.8707 38.213 6.19212 51.317 -62.4267 29.3255 
-78.5266 93.9719 44.5869 -2.14108 2.88532 -108.577 -27.0972 -23.0045 7.81728 12.7622 35.763 -9.49124 13.8416 13.1872 -2.55293 -4.13068 -10.186 -3.02142 3.76655 6.70208 -3.19122 0.0692318 13.1126 -5.76961 11.2295 -0.656186 -15.1548 1.59028e-015 -1.98785e-015 3.18055e-015 -73.9792 4.89417 -38.9632 -14.2554 41.4124 -114.024 6.54677 9.62745 -1.04006 24.5573 -3.93874 -17.1747 66.1724 -29.2793 39.3353 -22.0353 25.2286 138.514 -14.4941 10.7801 -11.7207 27.7015 -14.5407 -4.65687 -22.2371 42.7914 15.0627 -16.52 38.0334 6.43195 55.6855 -63.5033 33.4346 
-78.4678 93.165 43.8516 -2.68127 2.91252 -109.615 -26.7422 -22.4014 8.03241 10.8633 34.4035 -8.34606 13.5069 14.0917 -2.59198 -4.79273 -11.2134 -3.95779 3.47879 6.79135 -3.06745 -0.0175071 13.2864 -5.47258 10.8493 0.0662806 -14.8141 7.95139e-016 4.37326e-015 -3.18055e-015 -75.1331 3.36614 -40.4973 -14.563 42.0019 -113.964 6.54677 9.62745 -1.04006 23.7108 -3.51648 -16.0186 68.2052 -30.1856 44.525 -24.7255 24.1359 137.414 -14.9547 10.9215 -12.6281 27.2018 -14.1728 -4.12243 -22.7003 43.6636 16.0252 -16.6717 37.5975 6.42917 61.2386 -64.1692 39.0816 
-78.3745 92.1729 43.0589 -3.22495 2.99874 -110.455 -26.3728 -21.7987 7.85279 9.44695 33.5156 -6.84251 13.1085 15.4475 -2.66178 -6.49048 -15.4385 -4.89257 3.15367 6.83899 -3.08151 -0.132261 13.3833 -5.45866 10.6353 0.909958 -14.3458 7.95139e-016 -7.95139e-016 -9.54166e-015 -76.3927 1.66314 -42.3752 -14.9563 42.6562 -113.737 6.54677 9.62745 -1.04006 22.9103 -3.09154 -14.7518 69.8796 -30.3053 49.5833 -27.433 22.9994 136.113 -16.3804 11.08 -13.0343 26.7864 -13.8243 -4.03716 -22.7484 44.7033 16.7023 -16.631 37.1624 6.34826 67.1897 -64.3583 45.3592 
-78.2382 91.0473 42.2399 -3.75103 3.12998 -110.949 -26.0877 -21.2213 7.3731 8.66833 33.253 -5.50704 12.5265 16.9146 -2.69439 -9.20223 -22.4581 -5.96175 2.83559 6.84351 -3.24216 -0.31245 13.401 -5.74638 10.632 1.76614 -13.8107 -2.20695e-032 -3.97569e-016 -3.18055e-015 -77.6027 -0.0385407 -44.5123 -15.3667 43.2879 -113.368 6.54677 9.62745 -1.04006 22.1295 -2.63757 -13.2746 71.3136 -30.106 54.2236 -29.6608 22.2522 134.549 -18.321 11.2281 -13.0339 26.5097 -13.7586 -4.29842 -22.4503 46.1962 16.9062 -16.7868 36.8914 6.37024 72.6678 -64.2412 51.1759 
-78.0582 89.8484 41.4587 -4.26949 3.2667 -111.064 -26 -20.6776 6.7487 8.54931 33.5891 -4.74621 11.7525 18.2325 -2.65425 -12.7454 -31.1239 -7.38721 2.54122 6.81624 -3.52697 -0.608463 13.3627 -6.28099 10.8269 2.5355 -13.273 2.38542e-015 2.78299e-015 -9.54166e-015 -78.6514 -1.57871 -46.7615 -15.7147 43.826 -112.927 6.54677 9.62745 -1.04006 21.2871 -2.12041 -11.4563 72.8517 -30.1238 58.3168 -30.9909 22.2619 132.588 -20.0073 11.3375 -12.9146 26.3729 -14.1185 -4.74473 -21.9604 48.2738 16.4908 -17.4548 36.8005 6.62239 77.1103 -64.1874 55.6854 
-77.8483 88.6516 40.8048 -4.80349 3.35965 -110.889 -26.2024 -20.1563 6.13369 8.98609 34.2995 -4.66541 10.8947 19.2687 -2.55166 -16.7778 -39.7941 -9.29631 2.26554 6.77448 -3.88484 -1.05003 13.3044 -6.94662 11.1391 3.14715 -12.7882 -2.38542e-015 1.98785e-015 -6.36111e-015 -79.5126 -2.84645 -48.9157 -15.9412 44.248 -112.505 6.54677 9.62745 -1.04006 20.2727 -1.52129 -9.19671 74.8847 -30.8024 61.8394 -31.1547 23.1924 130.076 -20.8085 11.4067 -12.9631 26.3267 -14.9075 -5.19837 -21.5005 50.8888 15.4676 -18.7109 36.7452 7.11382 80.2156 -64.5406 58.3843 
